<mxfile host="app.diagrams.net" modified="2023-12-07T15:58:50.754Z" agent="Mozilla/5.0 (Windows NT 10.0; Win64; x64) AppleWebKit/537.36 (KHTML, like Gecko) Chrome/119.0.0.0 Safari/537.36" etag="9w1pODwnDcgS1VRC5ApI" version="22.1.7" type="github">
  <diagram name="Page-1" id="A_HD9lwuAhTRiuJ7cO_i">
    <mxGraphModel dx="497" dy="863" grid="1" gridSize="10" guides="1" tooltips="1" connect="1" arrows="1" fold="1" page="1" pageScale="1" pageWidth="850" pageHeight="1100" math="0" shadow="0">
      <root>
        <mxCell id="0" />
        <mxCell id="1" parent="0" />
        <mxCell id="RC6095rLdkZel_2V-MSr-1" value="Books" style="swimlane;childLayout=stackLayout;horizontal=1;startSize=50;horizontalStack=0;rounded=1;fontSize=14;fontStyle=0;strokeWidth=2;resizeParent=0;resizeLast=1;shadow=0;dashed=0;align=center;arcSize=4;whiteSpace=wrap;html=1;fillColor=#ffe6cc;strokeColor=#d79b00;" parent="1" vertex="1">
          <mxGeometry x="80" y="220" width="160" height="200" as="geometry" />
        </mxCell>
        <mxCell id="RC6095rLdkZel_2V-MSr-2" value="PKBookID&lt;br&gt;FKAuthorID&lt;br&gt;FKPublisherID&lt;br&gt;name&lt;br&gt;copyright date&lt;br&gt;fiction/nonfiction&lt;br&gt;genre&lt;br&gt;isbn&lt;br&gt;cost" style="align=left;strokeColor=none;fillColor=none;spacingLeft=4;fontSize=12;verticalAlign=top;resizable=0;rotatable=0;part=1;html=1;" parent="RC6095rLdkZel_2V-MSr-1" vertex="1">
          <mxGeometry y="50" width="160" height="150" as="geometry" />
        </mxCell>
        <mxCell id="RC6095rLdkZel_2V-MSr-3" value="Authors" style="swimlane;childLayout=stackLayout;horizontal=1;startSize=50;horizontalStack=0;rounded=1;fontSize=14;fontStyle=0;strokeWidth=2;resizeParent=0;resizeLast=1;shadow=0;dashed=0;align=center;arcSize=4;whiteSpace=wrap;html=1;fillColor=#f8cecc;strokeColor=#b85450;" parent="1" vertex="1">
          <mxGeometry x="80" y="40" width="160" height="150" as="geometry" />
        </mxCell>
        <mxCell id="RC6095rLdkZel_2V-MSr-4" value="PKAuthorID&lt;br&gt;first name&lt;br&gt;last name&lt;br&gt;dob&lt;br&gt;dod&lt;br&gt;website" style="align=left;strokeColor=none;fillColor=none;spacingLeft=4;fontSize=12;verticalAlign=top;resizable=0;rotatable=0;part=1;html=1;" parent="RC6095rLdkZel_2V-MSr-3" vertex="1">
          <mxGeometry y="50" width="160" height="100" as="geometry" />
        </mxCell>
        <mxCell id="RC6095rLdkZel_2V-MSr-5" value="Publishers" style="swimlane;childLayout=stackLayout;horizontal=1;startSize=50;horizontalStack=0;rounded=1;fontSize=14;fontStyle=0;strokeWidth=2;resizeParent=0;resizeLast=1;shadow=0;dashed=0;align=center;arcSize=4;whiteSpace=wrap;html=1;fillColor=#f8cecc;strokeColor=#b85450;" parent="1" vertex="1">
          <mxGeometry x="360" y="220" width="160" height="210" as="geometry" />
        </mxCell>
        <mxCell id="RC6095rLdkZel_2V-MSr-6" value="PKPublisherID&lt;br&gt;publisher name&lt;br&gt;sales rep&lt;br&gt;phone&lt;br&gt;email&lt;br&gt;address1&lt;br&gt;address2&lt;br&gt;city&lt;br&gt;state&lt;br&gt;zip" style="align=left;strokeColor=none;fillColor=none;spacingLeft=4;fontSize=12;verticalAlign=top;resizable=0;rotatable=0;part=1;html=1;" parent="RC6095rLdkZel_2V-MSr-5" vertex="1">
          <mxGeometry y="50" width="160" height="160" as="geometry" />
        </mxCell>
        <mxCell id="RC6095rLdkZel_2V-MSr-7" value="Customers" style="swimlane;childLayout=stackLayout;horizontal=1;startSize=50;horizontalStack=0;rounded=1;fontSize=14;fontStyle=0;strokeWidth=2;resizeParent=0;resizeLast=1;shadow=0;dashed=0;align=center;arcSize=4;whiteSpace=wrap;html=1;fillColor=#f8cecc;strokeColor=#b85450;" parent="1" vertex="1">
          <mxGeometry x="80" y="790" width="160" height="150" as="geometry" />
        </mxCell>
        <mxCell id="RC6095rLdkZel_2V-MSr-8" value="PKCustomerID&lt;br&gt;first name&lt;br&gt;last name&lt;br&gt;phone&lt;br&gt;email&lt;br&gt;address" style="align=left;strokeColor=none;fillColor=none;spacingLeft=4;fontSize=12;verticalAlign=top;resizable=0;rotatable=0;part=1;html=1;" parent="RC6095rLdkZel_2V-MSr-7" vertex="1">
          <mxGeometry y="50" width="160" height="100" as="geometry" />
        </mxCell>
        <mxCell id="RC6095rLdkZel_2V-MSr-9" value="Employees" style="swimlane;childLayout=stackLayout;horizontal=1;startSize=50;horizontalStack=0;rounded=1;fontSize=14;fontStyle=0;strokeWidth=2;resizeParent=0;resizeLast=1;shadow=0;dashed=0;align=center;arcSize=4;whiteSpace=wrap;html=1;fillColor=#f8cecc;strokeColor=#b85450;" parent="1" vertex="1">
          <mxGeometry x="360" y="490" width="160" height="260" as="geometry" />
        </mxCell>
        <mxCell id="RC6095rLdkZel_2V-MSr-10" value="PKEmployeeID&lt;br&gt;first name&lt;br&gt;last name&lt;br&gt;dob&lt;br&gt;phone&lt;br&gt;email&lt;br&gt;address1&lt;br&gt;address2&lt;br&gt;city&lt;br&gt;state&lt;br&gt;zip&lt;br&gt;position&lt;br&gt;hire date" style="align=left;strokeColor=none;fillColor=none;spacingLeft=4;fontSize=12;verticalAlign=top;resizable=0;rotatable=0;part=1;html=1;" parent="RC6095rLdkZel_2V-MSr-9" vertex="1">
          <mxGeometry y="50" width="160" height="210" as="geometry" />
        </mxCell>
        <mxCell id="KUYOHHqj8eQS1FXrRPeZ-14" value="" style="edgeStyle=orthogonalEdgeStyle;fontSize=12;html=1;endArrow=ERoneToMany;rounded=0;entryX=0;entryY=0;entryDx=0;entryDy=0;exitX=0;exitY=0;exitDx=0;exitDy=0;" edge="1" parent="1" source="RC6095rLdkZel_2V-MSr-4" target="RC6095rLdkZel_2V-MSr-2">
          <mxGeometry width="100" height="100" relative="1" as="geometry">
            <mxPoint x="80" y="530" as="sourcePoint" />
            <mxPoint x="180" y="430" as="targetPoint" />
            <Array as="points">
              <mxPoint x="60" y="90" />
              <mxPoint x="60" y="270" />
            </Array>
          </mxGeometry>
        </mxCell>
        <mxCell id="KUYOHHqj8eQS1FXrRPeZ-15" value="" style="fontSize=12;html=1;endArrow=ERoneToMany;rounded=0;exitX=0;exitY=0;exitDx=0;exitDy=0;entryX=1;entryY=0;entryDx=0;entryDy=0;edgeStyle=orthogonalEdgeStyle;" edge="1" parent="1" source="RC6095rLdkZel_2V-MSr-6" target="RC6095rLdkZel_2V-MSr-2">
          <mxGeometry width="100" height="100" relative="1" as="geometry">
            <mxPoint x="90" y="550" as="sourcePoint" />
            <mxPoint x="190" y="450" as="targetPoint" />
            <Array as="points">
              <mxPoint x="280" y="270" />
            </Array>
          </mxGeometry>
        </mxCell>
        <mxCell id="KUYOHHqj8eQS1FXrRPeZ-16" value="Sales" style="swimlane;childLayout=stackLayout;horizontal=1;startSize=50;horizontalStack=0;rounded=1;fontSize=14;fontStyle=0;strokeWidth=2;resizeParent=0;resizeLast=1;shadow=0;dashed=0;align=center;arcSize=4;whiteSpace=wrap;html=1;fillColor=#ffe6cc;strokeColor=#d79b00;" vertex="1" parent="1">
          <mxGeometry x="80" y="630" width="160" height="120" as="geometry" />
        </mxCell>
        <mxCell id="KUYOHHqj8eQS1FXrRPeZ-17" value="PKSaleID&lt;br&gt;FKCustomerID&lt;br&gt;FKEmployeeID" style="align=left;strokeColor=none;fillColor=none;spacingLeft=4;fontSize=12;verticalAlign=top;resizable=0;rotatable=0;part=1;html=1;" vertex="1" parent="KUYOHHqj8eQS1FXrRPeZ-16">
          <mxGeometry y="50" width="160" height="70" as="geometry" />
        </mxCell>
        <mxCell id="KUYOHHqj8eQS1FXrRPeZ-18" value="" style="edgeStyle=orthogonalEdgeStyle;fontSize=12;html=1;endArrow=ERoneToMany;rounded=0;entryX=0;entryY=0;entryDx=0;entryDy=0;exitX=-0.005;exitY=0.117;exitDx=0;exitDy=0;exitPerimeter=0;" edge="1" parent="1" source="RC6095rLdkZel_2V-MSr-2" target="KUYOHHqj8eQS1FXrRPeZ-23">
          <mxGeometry width="100" height="100" relative="1" as="geometry">
            <mxPoint x="80" y="350" as="sourcePoint" />
            <mxPoint x="80" y="530" as="targetPoint" />
            <Array as="points">
              <mxPoint x="79" y="290" />
              <mxPoint x="60" y="290" />
              <mxPoint x="60" y="520" />
            </Array>
          </mxGeometry>
        </mxCell>
        <mxCell id="KUYOHHqj8eQS1FXrRPeZ-19" value="" style="edgeStyle=orthogonalEdgeStyle;fontSize=12;html=1;endArrow=ERoneToMany;rounded=0;exitX=0;exitY=0;exitDx=0;exitDy=0;entryX=0;entryY=0.25;entryDx=0;entryDy=0;" edge="1" parent="1" source="KUYOHHqj8eQS1FXrRPeZ-17" target="KUYOHHqj8eQS1FXrRPeZ-23">
          <mxGeometry width="100" height="100" relative="1" as="geometry">
            <mxPoint x="39.95" y="886.47" as="sourcePoint" />
            <mxPoint x="39.95" y="693.97" as="targetPoint" />
            <Array as="points">
              <mxPoint x="60" y="680" />
              <mxPoint x="60" y="538" />
              <mxPoint x="80" y="538" />
            </Array>
          </mxGeometry>
        </mxCell>
        <mxCell id="KUYOHHqj8eQS1FXrRPeZ-20" value="" style="edgeStyle=entityRelationEdgeStyle;fontSize=12;html=1;endArrow=ERoneToMany;rounded=0;exitX=0;exitY=0;exitDx=0;exitDy=0;entryX=1;entryY=0;entryDx=0;entryDy=0;" edge="1" parent="1" source="RC6095rLdkZel_2V-MSr-10" target="KUYOHHqj8eQS1FXrRPeZ-17">
          <mxGeometry width="100" height="100" relative="1" as="geometry">
            <mxPoint x="360" y="940" as="sourcePoint" />
            <mxPoint x="460" y="840" as="targetPoint" />
          </mxGeometry>
        </mxCell>
        <mxCell id="KUYOHHqj8eQS1FXrRPeZ-22" value="Sale/Book" style="swimlane;childLayout=stackLayout;horizontal=1;startSize=50;horizontalStack=0;rounded=1;fontSize=14;fontStyle=0;strokeWidth=2;resizeParent=0;resizeLast=1;shadow=0;dashed=0;align=center;arcSize=4;whiteSpace=wrap;html=1;fillColor=#d5e8d4;strokeColor=#82b366;" vertex="1" parent="1">
          <mxGeometry x="80" y="470" width="160" height="120" as="geometry" />
        </mxCell>
        <mxCell id="KUYOHHqj8eQS1FXrRPeZ-23" value="PKFKSaleID&lt;br&gt;PKFKBookID" style="align=left;strokeColor=none;fillColor=none;spacingLeft=4;fontSize=12;verticalAlign=top;resizable=0;rotatable=0;part=1;html=1;" vertex="1" parent="KUYOHHqj8eQS1FXrRPeZ-22">
          <mxGeometry y="50" width="160" height="70" as="geometry" />
        </mxCell>
        <mxCell id="KUYOHHqj8eQS1FXrRPeZ-26" value="" style="edgeStyle=orthogonalEdgeStyle;fontSize=12;html=1;endArrow=ERoneToMany;rounded=0;entryX=0;entryY=0.25;entryDx=0;entryDy=0;exitX=0;exitY=0;exitDx=0;exitDy=0;" edge="1" parent="1" source="RC6095rLdkZel_2V-MSr-8" target="KUYOHHqj8eQS1FXrRPeZ-17">
          <mxGeometry width="100" height="100" relative="1" as="geometry">
            <mxPoint x="140" y="700" as="sourcePoint" />
            <mxPoint x="240" y="600" as="targetPoint" />
            <Array as="points">
              <mxPoint x="60" y="840" />
              <mxPoint x="60" y="697" />
            </Array>
          </mxGeometry>
        </mxCell>
      </root>
    </mxGraphModel>
  </diagram>
</mxfile>
